<svg width="14" height="14" viewBox="0 0 14 14" fill="none" xmlns="http://www.w3.org/2000/svg">
<path fill-rule="evenodd" clip-rule="evenodd" d="M6.99984 2.33341C4.42251 2.33341 2.33317 4.42275 2.33317 7.00008C2.33317 9.57741 4.42251 11.6667 6.99984 11.6667C9.57717 11.6667 11.6665 9.57741 11.6665 7.00008C11.6665 4.42275 9.57717 2.33341 6.99984 2.33341ZM1.1665 7.00008C1.1665 3.77842 3.77818 1.16675 6.99984 1.16675C10.2215 1.16675 12.8332 3.77842 12.8332 7.00008C12.8332 10.2217 10.2215 12.8334 6.99984 12.8334C3.77818 12.8334 1.1665 10.2217 1.1665 7.00008ZM7.0502 5.0067C6.81802 4.99783 6.59183 5.08156 6.42138 5.23946C6.25094 5.39736 6.1502 5.61651 6.14133 5.84868C6.12903 6.17061 5.85809 6.42162 5.53615 6.40932C5.21422 6.39703 4.96321 6.12608 4.97551 5.80415C4.99619 5.26278 5.23109 4.75179 5.62852 4.38361C6.02595 4.01543 6.55336 3.8202 7.09473 3.84088C7.6361 3.86156 8.14708 4.09645 8.51527 4.49388C8.88186 4.8896 9.07699 5.41418 9.05825 5.9531C9.05359 6.21797 8.99651 6.47933 8.89029 6.72206C8.78312 6.96695 8.62809 7.18796 8.4343 7.37209C8.24052 7.55622 8.01189 7.69976 7.76184 7.79428C7.70312 7.81648 7.6435 7.83587 7.58317 7.85242V8.16675C7.58317 8.48891 7.322 8.75008 6.99984 8.75008C6.67767 8.75008 6.4165 8.48891 6.4165 8.16675V7.33958C6.4165 7.18113 6.48096 7.02949 6.59506 6.91954C6.70916 6.80959 6.86308 6.75078 7.02142 6.75665C7.1332 6.76079 7.24467 6.74254 7.3493 6.70299C7.45393 6.66344 7.5496 6.60337 7.63068 6.52633C7.71177 6.44928 7.77664 6.35681 7.82148 6.25433C7.86633 6.15186 7.89024 6.04146 7.89181 5.92962L7.89218 5.91556C7.90105 5.68339 7.81732 5.4572 7.65942 5.28675C7.50152 5.11631 7.28237 5.01557 7.0502 5.0067ZM6.41067 9.92131C6.41067 9.59914 6.67183 9.33797 6.994 9.33797H6.99983C7.322 9.33797 7.58317 9.59914 7.58317 9.92131C7.58317 10.2435 7.322 10.5046 6.99983 10.5046H6.994C6.67183 10.5046 6.41067 10.2435 6.41067 9.92131Z" fill="#6A7282"/>
</svg>
